<svg version="1.1" id="Layer_1" xmlns="http://www.w3.org/2000/svg" xmlns:xlink="http://www.w3.org/1999/xlink" x="0px" y="0px"
	 width="100%" viewBox="0 0 500 500" enable-background="new 0 0 500 500" xml:space="preserve">
<path fill="#191D2B" opacity="1.000000" stroke="none" 
	d="
M283.000000,501.000000 
	C188.666687,501.000000 94.833382,501.000000 1.000050,501.000000 
	C1.000034,334.333405 1.000034,167.666794 1.000017,1.000140 
	C167.666565,1.000093 334.333130,1.000093 500.999756,1.000047 
	C500.999847,167.666519 500.999847,334.333038 500.999939,500.999786 
	C428.500000,501.000000 356.000000,501.000000 283.000000,501.000000 
M161.412598,289.837067 
	C164.032928,289.414307 166.742126,289.280884 169.255310,288.509216 
	C174.667709,286.847290 177.992218,283.245972 178.466248,277.366425 
	C178.928970,271.626892 176.781845,267.817963 170.985428,265.130432 
	C167.528992,263.527863 163.645874,262.775024 160.339218,260.945129 
	C158.182266,259.751434 155.296310,257.351746 155.239624,255.418915 
	C155.126556,251.563446 159.185303,251.163239 162.029953,251.373428 
	C166.226273,251.683441 170.355225,252.905212 174.735611,253.783340 
	C175.588043,251.892105 176.528885,249.804688 177.609879,247.406357 
	C170.212646,243.283722 162.692413,242.238113 154.833694,244.548782 
	C149.328232,246.167526 146.326019,250.172287 145.987793,255.368332 
	C145.606628,261.223907 148.069550,265.411652 153.389008,267.714783 
	C157.040741,269.295837 161.046814,270.131287 164.544861,271.966492 
	C166.561890,273.024689 167.883606,275.408203 169.518265,277.195160 
	C167.512100,278.670013 165.525848,281.350037 163.495880,281.383575 
	C158.329529,281.468964 153.143600,280.371124 147.230743,279.658264 
	C146.647705,280.927521 145.644012,283.112518 144.055740,286.570160 
	C149.985748,287.746521 155.252518,288.791321 161.412598,289.837067 
M352.435974,300.134369 
	C356.742706,298.160339 358.530212,294.447052 358.605530,290.069672 
	C358.788269,279.451233 358.664948,268.827454 358.664948,257.905273 
	C355.688324,257.905273 352.944458,257.905273 349.805298,257.905273 
	C349.805298,265.365753 349.805298,272.633148 349.805298,279.792816 
	C340.435150,282.144562 338.039032,280.367462 338.028961,271.440369 
	C338.023621,266.697144 338.028015,261.953918 338.028015,257.503632 
	C334.607361,257.503632 332.028351,257.503632 329.210541,257.503632 
	C329.210541,263.990784 328.967712,270.137482 329.276886,276.256287 
	C329.604706,282.744324 332.846985,286.122833 339.454681,287.186310 
	C342.798584,287.724457 346.236542,287.678375 350.446655,287.948761 
	C349.332397,289.958984 348.602814,292.679932 347.649445,292.760742 
	C342.557861,293.192291 337.410370,292.964172 332.341644,292.964172 
	C333.612671,301.144989 333.604218,301.335449 341.939880,301.704803 
	C345.181641,301.848450 348.471069,300.917114 352.435974,300.134369 
M300.284302,244.103745 
	C298.334656,244.103745 296.384979,244.103745 293.978790,244.103745 
	C293.978790,255.621918 293.978790,266.724060 293.978790,277.826202 
	C293.978790,288.155731 295.145203,289.368896 305.689056,289.887360 
	C307.181305,289.960754 308.688965,289.975677 310.176239,289.854706 
	C320.184174,289.040527 326.433044,281.857635 325.974915,271.751007 
	C325.547394,262.319794 318.755402,256.048767 308.898743,256.042572 
	C306.993286,256.041382 305.087708,256.232483 302.888214,256.350677 
	C302.888214,253.546844 303.087402,251.047226 302.815521,248.599930 
	C302.645172,247.066650 301.766418,245.612076 300.284302,244.103745 
M181.978775,253.544769 
	C181.978775,265.302094 181.978775,277.059418 181.978775,288.628723 
	C185.303192,288.628723 188.017548,288.628723 191.170502,288.628723 
	C191.170502,280.344635 191.170502,272.440247 191.170502,264.636780 
	C200.837753,262.975494 202.482986,264.281158 202.505066,273.223389 
	C202.517746,278.357666 202.507355,283.492004 202.507355,288.721375 
	C205.659042,288.721375 208.381073,288.721375 211.224930,288.721375 
	C211.224930,281.290710 211.444351,274.141205 211.156906,267.012146 
	C210.918182,261.091339 208.109024,257.891388 202.196762,256.681427 
	C198.683243,255.962387 195.002182,256.062012 190.744415,255.744980 
	C190.744415,251.985046 190.744415,248.119629 190.744415,244.379120 
	C187.496613,244.379120 184.900818,244.379120 181.978775,244.379120 
	C181.978775,247.289093 181.978775,249.924576 181.978775,253.544769 
M238.548462,257.743927 
	C234.144867,257.323883 229.749054,256.706116 225.335770,256.532349 
	C219.430298,256.299774 217.198441,259.705078 217.518326,265.236938 
	C233.609543,263.008270 234.402893,263.199066 235.634171,270.146088 
	C231.411926,270.146088 227.229980,269.727509 223.168396,270.248138 
	C217.633682,270.957550 214.448929,274.687195 214.368057,279.473907 
	C214.283798,284.460907 216.998703,288.348541 222.718155,288.937561 
	C229.243195,289.609497 235.912277,289.042419 242.503006,288.705627 
	C243.285080,288.665680 244.562469,286.706848 244.597656,285.605164 
	C244.783325,279.791168 244.762650,273.963013 244.577957,268.147278 
	C244.446426,264.005371 243.208344,260.266479 238.548462,257.743927 
M261.487122,284.766998 
	C263.182617,286.049927 264.694855,287.884766 266.605682,288.519196 
	C274.418274,291.113129 282.248871,289.975616 290.285217,288.254150 
	C290.285217,281.587250 290.409058,275.273773 290.254578,268.967133 
	C290.050385,260.631073 286.452026,256.852448 278.091553,256.233154 
	C275.468445,256.038849 272.765533,256.318207 270.151764,256.721710 
	C263.895233,257.687500 263.022217,258.989014 263.707581,265.549347 
	C276.517731,262.250122 280.514496,263.187744 281.059570,270.002747 
	C277.411041,270.002747 273.747223,269.693909 270.153748,270.065247 
	C261.958649,270.912079 258.745911,276.074585 261.487122,284.766998 
M259.825714,327.577545 
	C265.438690,329.621155 262.974731,324.412598 264.185242,322.440704 
	C268.711212,329.106842 273.558899,330.246033 279.881561,325.148499 
	C276.015289,324.497528 273.023956,323.993866 270.032623,323.490204 
	C270.074127,322.974304 270.115631,322.458405 270.157135,321.942505 
	C273.356598,321.756500 276.556030,321.570496 279.967957,321.372162 
	C279.928864,317.251465 278.705048,314.250092 275.080658,313.116974 
	C269.904968,311.498901 266.486084,314.124512 264.301147,319.122101 
	C261.923706,312.781189 260.247528,311.903839 254.310516,313.208099 
	C253.285706,313.433228 252.180695,313.313782 251.112610,313.317688 
	C248.058853,313.328888 245.005020,313.321625 241.770966,313.321625 
	C241.770966,318.399750 241.770966,322.998596 241.770966,327.532043 
	C244.818069,328.672180 246.079788,327.762970 245.901886,324.727783 
	C245.795059,322.905121 245.715454,321.042969 245.982086,319.251953 
	C246.119049,318.332001 247.042023,317.529083 247.609818,316.673279 
	C248.491730,317.442169 249.976852,318.103333 250.137131,319.001038 
	C250.541199,321.264069 250.173508,323.658020 250.492386,325.946930 
	C250.599335,326.714539 251.848648,327.857971 252.571213,327.854553 
	C253.295486,327.851135 254.525085,326.704651 254.636978,325.929749 
	C254.943192,323.809021 254.557281,321.584869 254.895172,319.473663 
	C255.056244,318.467316 256.238464,317.624451 256.958130,316.707550 
	C257.727936,317.579468 259.018646,318.372284 259.165405,319.338776 
	C259.536621,321.784180 259.393921,324.307556 259.825714,327.577545 
M221.295227,327.693451 
	C224.169373,327.693451 227.043533,327.693451 230.283218,327.693451 
	C230.283218,325.132050 229.976242,322.759277 230.395706,320.522766 
	C230.656845,319.130493 232.016739,317.944305 232.883514,316.665649 
	C233.792313,317.989319 235.204147,319.212585 235.493164,320.660004 
	C235.937271,322.884216 235.609924,325.262482 235.609924,327.575378 
	C236.067307,327.888123 236.524704,328.200897 236.982086,328.513641 
	C237.961014,327.433685 239.541672,326.474518 239.787903,325.247559 
	C240.237457,323.007324 240.473923,320.398468 239.722824,318.335266 
	C238.979019,316.292053 237.090057,313.466095 235.379929,313.218628 
	C231.566238,312.666748 229.716187,311.271088 229.993790,307.529510 
	C226.702515,306.339996 225.943085,307.764862 226.000305,310.555389 
	C226.107803,315.797882 226.031311,321.044128 226.031311,326.288788 
	C224.521759,325.055969 223.805832,323.658020 223.245804,322.200226 
	C221.634949,318.006866 220.217010,313.732727 218.427063,309.619232 
	C217.954147,308.532440 216.456238,307.328979 215.345169,307.241302 
	C214.240753,307.154205 212.378891,308.133728 211.973740,309.111450 
	C209.468369,315.157898 207.280334,321.335815 204.986893,327.470062 
	C205.312744,327.781158 205.638596,328.092255 205.964462,328.403320 
	C207.213486,327.719818 209.337250,327.245941 209.559952,326.316498 
	C210.517639,322.320099 213.521820,322.346863 216.159592,323.055603 
	C217.937347,323.533234 219.285950,325.608215 221.295227,327.693451 
M257.021210,260.502075 
	C257.021210,255.085297 257.021210,249.668518 257.021210,244.367584 
	C253.726913,244.367584 251.134109,244.367584 248.393524,244.367584 
	C248.393524,259.324219 248.393524,274.013000 248.393524,288.691772 
	C251.402679,288.691772 254.116302,288.691772 257.021210,288.691772 
	C257.021210,279.415131 257.021210,270.458344 257.021210,260.502075 
M241.582840,215.652145 
	C240.459808,218.600876 239.241821,221.519333 238.284592,224.520935 
	C238.062378,225.217712 238.728928,226.197922 238.986511,227.047714 
	C239.833984,226.760864 240.947495,226.711243 241.465363,226.130508 
	C242.205704,225.300201 242.573883,224.105927 242.991547,223.024811 
	C249.573502,205.987015 256.183502,188.959656 262.624847,171.868744 
	C263.175934,170.406540 262.578674,168.511520 262.514862,166.817566 
	C261.386932,167.992844 259.763763,168.971573 259.207275,170.373657 
	C253.327393,185.188019 247.617508,200.069839 241.582840,215.652145 
M226.667145,189.020996 
	C230.637604,185.915070 234.608047,182.809143 238.578506,179.703217 
	C238.316895,179.111679 238.055283,178.520157 237.793686,177.928619 
	C236.354462,178.254227 234.602325,178.163925 233.526871,178.973038 
	C226.631882,184.160507 219.824814,189.472137 213.178116,194.971725 
	C212.467010,195.560120 212.369400,198.359207 213.012177,198.888809 
	C219.926834,204.586044 226.999008,210.098099 234.176224,215.462631 
	C235.025284,216.097260 236.758545,215.548889 238.081940,215.548889 
	C238.205063,215.102264 238.328171,214.655640 238.451279,214.209000 
	C234.582001,211.175064 230.733353,208.114349 226.839386,205.112427 
	C216.929230,197.472580 216.921112,197.483109 226.667145,189.020996 
M270.936157,208.566406 
	C268.547546,210.638351 266.158966,212.710312 263.770355,214.782272 
	C264.104950,215.339813 264.439514,215.897339 264.774078,216.454865 
	C266.398163,215.837601 268.274323,215.553055 269.603271,214.546234 
	C275.819183,209.836990 281.834442,204.863754 288.025055,200.120087 
	C290.928284,197.895447 290.934662,196.085541 288.028015,193.884857 
	C282.471588,189.677994 277.120605,185.193649 271.475861,181.112885 
	C269.494965,179.680847 266.902161,179.095215 264.588776,178.123093 
	C266.181488,180.181274 267.490143,182.569305 269.422363,184.233231 
	C274.382477,188.504562 279.619415,192.454453 285.337921,197.004044 
	C280.207947,201.113312 275.841858,204.610672 270.936157,208.566406 
M291.943604,311.816101 
	C290.650909,312.145203 289.375183,312.588928 288.062500,312.783295 
	C282.805389,313.561768 279.844849,318.572144 281.795624,323.490448 
	C283.328033,327.353912 287.120667,328.832336 292.132812,328.297272 
	C297.032654,327.774170 296.100189,324.415680 296.121796,321.384705 
	C296.146576,317.907379 296.292145,314.417694 296.041626,310.958313 
	C295.946625,309.646271 294.894562,308.403503 294.278717,307.129181 
	C293.517365,308.427216 292.756012,309.725250 291.943604,311.816101 
z"/>
<path fill="#F7F7F8" opacity="1.000000" stroke="none" 
	d="
M160.965942,289.836609 
	C155.252518,288.791321 149.985748,287.746521 144.055740,286.570160 
	C145.644012,283.112518 146.647705,280.927521 147.230743,279.658264 
	C153.143600,280.371124 158.329529,281.468964 163.495880,281.383575 
	C165.525848,281.350037 167.512100,278.670013 169.518280,277.195190 
	C167.883606,275.408203 166.561890,273.024689 164.544861,271.966492 
	C161.046814,270.131287 157.040741,269.295837 153.389008,267.714783 
	C148.069550,265.411652 145.606628,261.223907 145.987793,255.368332 
	C146.326019,250.172287 149.328232,246.167526 154.833694,244.548782 
	C162.692413,242.238113 170.212646,243.283722 177.609879,247.406357 
	C176.528885,249.804688 175.588043,251.892105 174.735611,253.783340 
	C170.355225,252.905212 166.226273,251.683441 162.029953,251.373428 
	C159.185303,251.163239 155.126556,251.563446 155.239624,255.418915 
	C155.296310,257.351746 158.182266,259.751434 160.339218,260.945129 
	C163.645874,262.775024 167.528992,263.527863 170.985428,265.130432 
	C176.781845,267.817963 178.928970,271.626892 178.466248,277.366425 
	C177.992218,283.245972 174.667709,286.847290 169.255310,288.509216 
	C166.742126,289.280884 164.032928,289.414307 160.965942,289.836609 
z"/>
<path fill="#F6F6F7" opacity="1.000000" stroke="none" 
	d="
M352.087372,300.304901 
	C348.471069,300.917114 345.181641,301.848450 341.939880,301.704803 
	C333.604218,301.335449 333.612671,301.144989 332.341644,292.964172 
	C337.410370,292.964172 342.557861,293.192291 347.649445,292.760742 
	C348.602814,292.679932 349.332397,289.958984 350.446655,287.948761 
	C346.236542,287.678375 342.798584,287.724457 339.454681,287.186310 
	C332.846985,286.122833 329.604706,282.744324 329.276886,276.256287 
	C328.967712,270.137482 329.210541,263.990784 329.210541,257.503632 
	C332.028351,257.503632 334.607361,257.503632 338.028015,257.503632 
	C338.028015,261.953918 338.023621,266.697144 338.028961,271.440369 
	C338.039032,280.367462 340.435150,282.144562 349.805298,279.792816 
	C349.805298,272.633148 349.805298,265.365753 349.805298,257.905273 
	C352.944458,257.905273 355.688324,257.905273 358.664948,257.905273 
	C358.664948,268.827454 358.788269,279.451233 358.605530,290.069672 
	C358.530212,294.447052 356.742706,298.160339 352.087372,300.304901 
z"/>
<path fill="#F9F9F9" opacity="1.000000" stroke="none" 
	d="
M300.744904,244.112961 
	C301.766418,245.612076 302.645172,247.066650 302.815521,248.599930 
	C303.087402,251.047226 302.888214,253.546844 302.888214,256.350677 
	C305.087708,256.232483 306.993286,256.041382 308.898743,256.042572 
	C318.755402,256.048767 325.547394,262.319794 325.974915,271.751007 
	C326.433044,281.857635 320.184174,289.040527 310.176239,289.854706 
	C308.688965,289.975677 307.181305,289.960754 305.689056,289.887360 
	C295.145203,289.368896 293.978790,288.155731 293.978790,277.826202 
	C293.978790,266.724060 293.978790,255.621918 293.978790,244.103745 
	C296.384979,244.103745 298.334656,244.103745 300.744904,244.112961 
M317.029022,274.204803 
	C316.810486,265.270477 311.738068,261.963898 303.066071,265.211121 
	C303.066071,270.439453 303.066071,275.706238 303.066071,280.909515 
	C310.672760,283.346222 314.387512,281.731598 317.029022,274.204803 
z"/>
<path fill="#F9F9F9" opacity="1.000000" stroke="none" 
	d="
M181.978775,253.052429 
	C181.978775,249.924576 181.978775,247.289093 181.978775,244.379120 
	C184.900818,244.379120 187.496613,244.379120 190.744415,244.379120 
	C190.744415,248.119629 190.744415,251.985046 190.744415,255.744980 
	C195.002182,256.062012 198.683243,255.962387 202.196762,256.681427 
	C208.109024,257.891388 210.918182,261.091339 211.156906,267.012146 
	C211.444351,274.141205 211.224930,281.290710 211.224930,288.721375 
	C208.381073,288.721375 205.659042,288.721375 202.507355,288.721375 
	C202.507355,283.492004 202.517746,278.357666 202.505066,273.223389 
	C202.482986,264.281158 200.837753,262.975494 191.170502,264.636780 
	C191.170502,272.440247 191.170502,280.344635 191.170502,288.628723 
	C188.017548,288.628723 185.303192,288.628723 181.978775,288.628723 
	C181.978775,277.059418 181.978775,265.302094 181.978775,253.052429 
z"/>
<path fill="#F6F6F7" opacity="1.000000" stroke="none" 
	d="
M238.897171,257.903076 
	C243.208344,260.266479 244.446426,264.005371 244.577957,268.147278 
	C244.762650,273.963013 244.783325,279.791168 244.597656,285.605164 
	C244.562469,286.706848 243.285080,288.665680 242.503006,288.705627 
	C235.912277,289.042419 229.243195,289.609497 222.718155,288.937561 
	C216.998703,288.348541 214.283798,284.460907 214.368057,279.473907 
	C214.448929,274.687195 217.633682,270.957550 223.168396,270.248138 
	C227.229980,269.727509 231.411926,270.146088 235.634171,270.146088 
	C234.402893,263.199066 233.609543,263.008270 217.518967,265.237518 
	C217.198441,259.705078 219.430298,256.299774 225.335770,256.532349 
	C229.749054,256.706116 234.144867,257.323883 238.897171,257.903076 
M224.361984,277.100189 
	C223.454071,282.544495 227.135483,284.252472 235.465912,282.137238 
	C235.465912,280.134766 235.465912,278.102325 235.465912,275.123199 
	C231.693558,275.643799 228.348083,276.105438 224.361984,277.100189 
z"/>
<path fill="#F7F7F8" opacity="1.000000" stroke="none" 
	d="
M261.295837,284.428894 
	C258.745911,276.074585 261.958649,270.912079 270.153748,270.065247 
	C273.747223,269.693909 277.411041,270.002747 281.059570,270.002747 
	C280.514496,263.187744 276.517731,262.250122 263.707581,265.549347 
	C263.022217,258.989014 263.895233,257.687500 270.151764,256.721710 
	C272.765533,256.318207 275.468445,256.038849 278.091553,256.233154 
	C286.452026,256.852448 290.050385,260.631073 290.254578,268.967133 
	C290.409058,275.273773 290.285217,281.587250 290.285217,288.254150 
	C282.248871,289.975616 274.418274,291.113129 266.605682,288.519196 
	C264.694855,287.884766 263.182617,286.049927 261.295837,284.428894 
M280.501984,275.827881 
	C277.718964,275.865295 274.888733,275.622467 272.176331,276.079285 
	C271.105255,276.259644 269.610962,277.967865 269.563324,279.036316 
	C269.516632,280.083313 270.907898,281.927612 271.941742,282.150116 
	C274.874664,282.781250 277.947449,282.762207 281.146362,283.013458 
	C281.146362,280.190430 281.146362,278.247162 280.501984,275.827881 
z"/>
<path fill="#05EA69" opacity="1.000000" stroke="none" 
	d="
M259.641418,327.188629 
	C259.393921,324.307556 259.536621,321.784180 259.165405,319.338776 
	C259.018646,318.372284 257.727936,317.579468 256.958130,316.707550 
	C256.238464,317.624451 255.056244,318.467316 254.895172,319.473663 
	C254.557281,321.584869 254.943192,323.809021 254.636978,325.929749 
	C254.525085,326.704651 253.295486,327.851135 252.571213,327.854553 
	C251.848648,327.857971 250.599335,326.714539 250.492386,325.946930 
	C250.173508,323.658020 250.541199,321.264069 250.137131,319.001038 
	C249.976852,318.103333 248.491730,317.442169 247.609802,316.673279 
	C247.042023,317.529083 246.119049,318.332001 245.982086,319.251953 
	C245.715454,321.042969 245.795059,322.905121 245.901886,324.727783 
	C246.079788,327.762970 244.818069,328.672180 241.770966,327.532043 
	C241.770966,322.998596 241.770966,318.399750 241.770966,313.321625 
	C245.005020,313.321625 248.058853,313.328888 251.112610,313.317688 
	C252.180695,313.313782 253.285706,313.433228 254.310516,313.208099 
	C260.247528,311.903839 261.923706,312.781189 264.301147,319.122101 
	C266.486084,314.124512 269.904968,311.498901 275.080658,313.116974 
	C278.705048,314.250092 279.928864,317.251465 279.967957,321.372162 
	C276.556030,321.570496 273.356598,321.756500 270.157135,321.942505 
	C270.115631,322.458405 270.074127,322.974304 270.032623,323.490204 
	C273.023956,323.993866 276.015289,324.497528 279.881561,325.148499 
	C273.558899,330.246033 268.711212,329.106842 264.185242,322.440704 
	C262.974731,324.412598 265.438690,329.621155 259.641418,327.188629 
z"/>
<path fill="#05EA69" opacity="1.000000" stroke="none" 
	d="
M221.060883,327.331055 
	C219.285950,325.608215 217.937347,323.533234 216.159592,323.055603 
	C213.521820,322.346863 210.517639,322.320099 209.559952,326.316498 
	C209.337250,327.245941 207.213486,327.719818 205.964462,328.403320 
	C205.638596,328.092255 205.312744,327.781158 204.986893,327.470062 
	C207.280334,321.335815 209.468369,315.157898 211.973740,309.111450 
	C212.378891,308.133728 214.240753,307.154205 215.345169,307.241302 
	C216.456238,307.328979 217.954147,308.532440 218.427063,309.619232 
	C220.217010,313.732727 221.634949,318.006866 223.245804,322.200226 
	C223.805832,323.658020 224.521759,325.055969 226.031311,326.288788 
	C226.031311,321.044128 226.107803,315.797882 226.000305,310.555389 
	C225.943085,307.764862 226.702515,306.339996 229.993790,307.529510 
	C229.716187,311.271088 231.566238,312.666748 235.379929,313.218628 
	C237.090057,313.466095 238.979019,316.292053 239.722824,318.335266 
	C240.473923,320.398468 240.237457,323.007324 239.787903,325.247559 
	C239.541672,326.474518 237.961014,327.433685 236.982086,328.513641 
	C236.524704,328.200897 236.067307,327.888123 235.609924,327.575378 
	C235.609924,325.262482 235.937271,322.884216 235.493164,320.660004 
	C235.204147,319.212585 233.792313,317.989319 232.883514,316.665649 
	C232.016739,317.944305 230.656845,319.130493 230.395706,320.522766 
	C229.976242,322.759277 230.283218,325.132050 230.283218,327.693451 
	C227.043533,327.693451 224.169373,327.693451 221.060883,327.331055 
z"/>
<path fill="#F9F9F9" opacity="1.000000" stroke="none" 
	d="
M257.021210,261.001801 
	C257.021210,270.458344 257.021210,279.415131 257.021210,288.691772 
	C254.116302,288.691772 251.402679,288.691772 248.393524,288.691772 
	C248.393524,274.013000 248.393524,259.324219 248.393524,244.367584 
	C251.134109,244.367584 253.726913,244.367584 257.021210,244.367584 
	C257.021210,249.668518 257.021210,255.085297 257.021210,261.001801 
z"/>
<path fill="#09DE6E" opacity="1.000000" stroke="none" 
	d="
M241.721802,215.292603 
	C247.617508,200.069839 253.327393,185.188019 259.207275,170.373657 
	C259.763763,168.971573 261.386932,167.992844 262.514862,166.817566 
	C262.578674,168.511520 263.175934,170.406540 262.624847,171.868744 
	C256.183502,188.959656 249.573502,205.987015 242.991547,223.024811 
	C242.573883,224.105927 242.205704,225.300201 241.465363,226.130508 
	C240.947495,226.711243 239.833984,226.760864 238.986511,227.047714 
	C238.728928,226.197922 238.062378,225.217712 238.284592,224.520935 
	C239.241821,221.519333 240.459808,218.600876 241.721802,215.292603 
z"/>
<path fill="#09DE6E" opacity="1.000000" stroke="none" 
	d="
M226.376953,189.231842 
	C216.921112,197.483109 216.929230,197.472580 226.839386,205.112427 
	C230.733353,208.114349 234.582001,211.175064 238.451279,214.209000 
	C238.328171,214.655640 238.205063,215.102264 238.081940,215.548889 
	C236.758545,215.548889 235.025284,216.097260 234.176224,215.462631 
	C226.999008,210.098099 219.926834,204.586044 213.012177,198.888809 
	C212.369400,198.359207 212.467010,195.560120 213.178116,194.971725 
	C219.824814,189.472137 226.631882,184.160507 233.526871,178.973038 
	C234.602325,178.163925 236.354462,178.254227 237.793686,177.928619 
	C238.055283,178.520157 238.316895,179.111679 238.578506,179.703217 
	C234.608047,182.809143 230.637604,185.915070 226.376953,189.231842 
z"/>
<path fill="#09DE6E" opacity="1.000000" stroke="none" 
	d="
M271.205963,208.337219 
	C275.841858,204.610672 280.207947,201.113312 285.337921,197.004044 
	C279.619415,192.454453 274.382477,188.504562 269.422363,184.233231 
	C267.490143,182.569305 266.181488,180.181274 264.588776,178.123093 
	C266.902161,179.095215 269.494965,179.680847 271.475861,181.112885 
	C277.120605,185.193649 282.471588,189.677994 288.028015,193.884857 
	C290.934662,196.085541 290.928284,197.895447 288.025055,200.120087 
	C281.834442,204.863754 275.819183,209.836990 269.603271,214.546234 
	C268.274323,215.553055 266.398163,215.837601 264.774078,216.454865 
	C264.439514,215.897339 264.104950,215.339813 263.770355,214.782272 
	C266.158966,212.710312 268.547546,210.638351 271.205963,208.337219 
z"/>
<path fill="#05EA69" opacity="1.000000" stroke="none" 
	d="
M291.969147,311.419678 
	C292.756012,309.725250 293.517365,308.427216 294.278717,307.129181 
	C294.894562,308.403503 295.946625,309.646271 296.041626,310.958313 
	C296.292145,314.417694 296.146576,317.907379 296.121796,321.384705 
	C296.100189,324.415680 297.032654,327.774170 292.132812,328.297272 
	C287.120667,328.832336 283.328033,327.353912 281.795624,323.490448 
	C279.844849,318.572144 282.805389,313.561768 288.062500,312.783295 
	C289.375183,312.588928 290.650909,312.145203 291.969147,311.419678 
M292.020569,320.557922 
	C291.135742,319.195801 290.250916,317.833710 289.366089,316.471588 
	C288.083649,317.706482 285.680054,319.048920 285.785767,320.150604 
	C285.938171,321.738647 287.913055,323.151794 289.110229,324.639587 
	C290.080017,323.548584 291.049805,322.457581 292.020569,320.557922 
z"/>
<path fill="#1F2331" opacity="1.000000" stroke="none" 
	d="
M316.989014,274.613342 
	C314.387512,281.731598 310.672760,283.346222 303.066071,280.909515 
	C303.066071,275.706238 303.066071,270.439453 303.066071,265.211121 
	C311.738068,261.963898 316.810486,265.270477 316.989014,274.613342 
z"/>
<path fill="#1F2331" opacity="1.000000" stroke="none" 
	d="
M224.682297,276.833649 
	C228.348083,276.105438 231.693558,275.643799 235.465912,275.123199 
	C235.465912,278.102325 235.465912,280.134766 235.465912,282.137238 
	C227.135483,284.252472 223.454071,282.544495 224.682297,276.833649 
z"/>
<path fill="#1F2331" opacity="1.000000" stroke="none" 
	d="
M280.824158,276.065918 
	C281.146362,278.247162 281.146362,280.190430 281.146362,283.013458 
	C277.947449,282.762207 274.874664,282.781250 271.941742,282.150116 
	C270.907898,281.927612 269.516632,280.083313 269.563324,279.036316 
	C269.610962,277.967865 271.105255,276.259644 272.176331,276.079285 
	C274.888733,275.622467 277.718964,275.865295 280.824158,276.065918 
z"/>
<path fill="#1F2331" opacity="1.000000" stroke="none" 
	d="
M292.020081,320.962250 
	C291.049805,322.457581 290.080017,323.548584 289.110229,324.639587 
	C287.913055,323.151794 285.938171,321.738647 285.785767,320.150604 
	C285.680054,319.048920 288.083649,317.706482 289.366089,316.471588 
	C290.250916,317.833710 291.135742,319.195801 292.020081,320.962250 
z"/>
</svg>